<svg id="Слой_1" data-name="Слой 1" xmlns="http://www.w3.org/2000/svg" viewBox="0 0 323.58 146.91">
	<defs>
		<style>.cls-1{fill:#6d615a;}.cls-2{fill:#b3b0ac;}</style>
	</defs>
	<title>muel-logo</title>
	<path class="cls-1" d="M-2803.3,2232.71V2157.1q0-7.33,3.77-11.26t10.91-3.93q6.43,0,10.2,3.27t6.29,11.11l14,45.55,13-47.76q1.71-6.23,5.58-9.2t10.31-3q7.23,0,11.11,4.18t3.87,12.11v74.51h-18.91V2159a4.9,4.9,0,0,0-.5-2.47,1.57,1.57,0,0,0-1.41-.85,2,2,0,0,0-1.56.6,6.26,6.26,0,0,0-1,2.22l-19.41,69.28a15.92,15.92,0,0,1-2.66,6,4.86,4.86,0,0,1-3.87,1.86,5.53,5.53,0,0,1-4-1.61,11.31,11.31,0,0,1-2.66-4.63l-20.81-69.88c-.07-.2-.17-.6-.31-1.21q-.6-2.61-1.71-2.61c-.47,0-.85.32-1.15.95a7.27,7.27,0,0,0-.56,2.57v73.5Z" transform="translate(2803.3 -2088.72)"/>
	<path class="cls-1" d="M-2666.65,2144.53v57.11q0,10.67,5,16.44t14.33,5.78q9.75,0,13.92-6t4.18-20.11v-53.19h8.64v59.32q0,14.79-8.24,23.28t-22.63,8.5q-17.09,0-25.94-8.7t-8.85-25.49v-56.91Z" transform="translate(2803.3 -2088.72)"/>
	<path class="cls-1" d="M-2594.86,2160.42q0-9.86,3.17-12.87t13.33-3h42v7.64h-30.07c-3.55,0-5.92.5-7.09,1.51s-1.76,2.85-1.76,5.53v22.22h31.88v8.65h-31.88v28.05c0,2.69.61,4.51,1.81,5.48s4,1.46,8.45,1.46h29.66v7.64h-46.15q-7.44,0-10.41-3.11t-3-12.77Z" transform="translate(2803.3 -2088.72)"/>
	<path class="cls-1" d="M-2514.51,2088.72h19.6v129.41c0,2.69.61,4.51,1.81,5.48s4,1.46,8.45,1.46h4.93v7.64h-21.42q-7.44,0-10.41-3.11t-3-12.77Z" transform="translate(2803.3 -2088.72)"/>
	<path class="cls-2" d="M-2647.64,2088.72c-13,0-21,8.65-21,19.56,0,10.51,8.44,18.75,20.8,18.75,11.53,0,20.59-8,20.59-19S-2635.49,2088.72-2647.64,2088.72Zm1.74,30.69c-6,0-10.29-5.77-10.29-11.13,0-6.38,3.91-11.73,10.09-11.73,6.79,0,10.91,5.15,10.91,11.32S-2639.31,2119.41-2645.9,2119.41Z" transform="translate(2803.3 -2088.72)"/>
</svg>